<svg width="512" height="512" viewBox="0 0 512 512" xmlns="http://www.w3.org/2000/svg">
  <defs>
    <linearGradient id="gradient" x1="0%" y1="0%" x2="100%" y2="100%">
      <stop offset="0%" style="stop-color:#f97316;stop-opacity:1" />
      <stop offset="100%" style="stop-color:#f43f5e;stop-opacity:1" />
    </linearGradient>
  </defs>
  
  <!-- Background circle -->
  <circle cx="256" cy="256" r="240" fill="url(#gradient)" />
  
  <!-- Cocktail glass -->
  <g transform="translate(256,256)">
    <!-- Glass bowl -->
    <ellipse cx="0" cy="20" rx="80" ry="100" fill="rgba(255,255,255,0.9)" stroke="rgba(255,255,255,0.3)" stroke-width="3"/>
    
    <!-- Drink liquid -->
    <ellipse cx="0" cy="35" rx="70" ry="80" fill="url(#gradient)" opacity="0.6"/>
    
    <!-- Glass stem -->
    <rect x="-4" y="120" width="8" height="60" fill="rgba(255,255,255,0.9)"/>
    
    <!-- Glass base -->
    <ellipse cx="0" cy="180" rx="40" ry="12" fill="rgba(255,255,255,0.9)"/>
    
    <!-- Garnish/olive -->
    <circle cx="30" cy="0" r="8" fill="#22c55e"/>
    
    <!-- Sparkle/AI element -->
    <g transform="translate(-60,-40)">
      <polygon points="0,-8 2,0 8,0 3,3 5,10 0,6 -5,10 -3,3 -8,0 -2,0" fill="rgba(255,255,255,0.8)"/>
    </g>
    <g transform="translate(50,-60)">
      <polygon points="0,-6 1.5,0 6,0 2.25,2.25 3.75,7.5 0,4.5 -3.75,7.5 -2.25,2.25 -6,0 -1.5,0" fill="rgba(255,255,255,0.8)"/>
    </g>
  </g>
</svg>